<svg width="34" height="35" viewBox="0 0 34 35" fill="none" xmlns="http://www.w3.org/2000/svg">
<path d="M19.0254 14.4785C18.2584 14.4785 17.6641 15.0729 17.6641 15.8066C17.6641 16.5404 18.2584 17.1348 19.0254 17.1348C19.726 17.1348 20.3203 16.5404 20.3203 15.8066C20.3203 15.0729 19.726 14.4785 19.0254 14.4785ZM9.72852 14.4785C8.96152 14.4785 8.36719 15.0729 8.36719 15.8066C8.36719 16.5404 8.96152 17.1348 9.72852 17.1348C10.4291 17.1348 11.0234 16.5404 11.0234 15.8066C11.0234 15.0729 10.4291 14.4785 9.72852 14.4785Z" fill="white"/>
<path d="M29.6836 11.9551C28.0866 9.76369 25.8553 8.29943 23.4082 7.63869V7.64201C22.8405 7.01115 22.1997 6.4301 21.4825 5.91213C16.0471 1.96096 8.41704 3.16623 4.44926 8.60158C1.2518 13.0176 1.38794 18.9576 4.64848 23.1778L4.67505 27.5805C4.67505 27.6867 4.69165 27.793 4.72485 27.8926C4.90083 28.4537 5.49848 28.7625 6.05629 28.5865L10.2598 27.2617C11.3721 27.6569 12.5209 27.8826 13.6631 27.9457L13.6465 27.959C16.6049 30.1139 20.4831 30.7613 24.0391 29.586L28.2592 30.9606C28.3655 30.9938 28.475 31.0137 28.5879 31.0137C29.1756 31.0137 29.6504 30.5389 29.6504 29.9512V25.502C32.5756 21.5309 32.652 16.0424 29.6836 11.9551ZM10.7247 24.9043L10.3262 24.7383L7.03911 25.7676L7.0059 22.3145L6.74028 22.0156C3.9313 18.5891 3.74536 13.6518 6.37505 10.0293C9.57583 5.63986 15.7118 4.67033 20.0879 7.83791C24.4774 11.0287 25.4502 17.1547 22.2793 21.5176C19.6198 25.1666 14.8584 26.5147 10.7247 24.9043ZM27.4922 24.3399L27.2266 24.6719L27.2598 28.125L24.0059 27.0293L23.6075 27.1953C21.7481 27.886 19.7659 27.9424 17.9297 27.4278L17.9231 27.4244C20.3768 26.6707 22.6014 25.1434 24.2051 22.9453C26.7418 19.449 27.1536 15.0563 25.6793 11.311L25.6993 11.3242C26.4629 11.8721 27.1635 12.5561 27.7579 13.3828C30.1684 16.6899 30.0323 21.1922 27.4922 24.3399Z" fill="white"/>
<path d="M14.377 14.4785C13.61 14.4785 13.0156 15.0729 13.0156 15.8066C13.0156 16.5404 13.61 17.1348 14.377 17.1348C15.0775 17.1348 15.6719 16.5404 15.6719 15.8066C15.6719 15.0729 15.0775 14.4785 14.377 14.4785Z" fill="white"/>
</svg>
